<?xml version="1.0" encoding="utf-8"?>
<!-- Generator: Adobe Illustrator 18.0.0, SVG Export Plug-In . SVG Version: 6.00 Build 0)  -->
<!DOCTYPE svg PUBLIC "-//W3C//DTD SVG 1.1//EN" "http://www.w3.org/Graphics/SVG/1.1/DTD/svg11.dtd">
<svg version="1.1" id="Layer_1" xmlns="http://www.w3.org/2000/svg" xmlns:xlink="http://www.w3.org/1999/xlink" x="0px" y="0px"
	 viewBox="0 0 239.2 201.6" enable-background="new 0 0 239.2 201.6" xml:space="preserve">
<g>
	<g>
		<g>
			<polygon fill="#E95F58" points="85.5,72.1 38.3,73 27.7,53.4 72.6,52.7 			"/>
			<polygon fill="#E95F58" points="39.5,92.6 68.9,111.9 102.4,111.4 90,91.8 			"/>
			
				<polygon fill="none" stroke="#10658C" stroke-width="3.787" stroke-linecap="round" stroke-linejoin="round" stroke-miterlimit="10" points="
				110.5,110.2 93,127.8 35.4,89.9 14.5,51.1 33.9,31.8 72.6,52.7 			"/>
			<g>
				<polyline fill="#2FA3D9" points="160.2,182.5 109.8,141.4 129.7,133.8 165.3,177.4 				"/>
			</g>
			<g>
				
					<polyline fill="none" stroke="#10658C" stroke-width="3.787" stroke-linecap="round" stroke-linejoin="round" stroke-miterlimit="10" points="
					160.2,182.5 93,127.8 110.5,110.2 165.3,177.4 				"/>
			</g>
			
				<path fill="none" stroke="#10658C" stroke-width="3.787" stroke-linecap="round" stroke-linejoin="round" stroke-miterlimit="10" d="
				M175.2,181.7l-10.8,10.8c-1,1-2.7,1-3.7,0l-3.4-3.4c-1-1-1-2.7,0-3.7l10.8-10.8c1-1,2.7-1,3.7,0l3.4,3.4
				C176.2,179,176.2,180.6,175.2,181.7z"/>
			
				<path fill="none" stroke="#10658C" stroke-width="3.787" stroke-linecap="round" stroke-linejoin="round" stroke-miterlimit="10" d="
				M32.7,32.9l-17,17c-1,1-2.7,1-3.7,0l-1.6-1.6c-1-1-1-2.7,0-3.7l17-17c1-1,2.7-1,3.7,0l1.6,1.6C33.7,30.3,33.7,31.9,32.7,32.9z"/>
			
				<line fill="none" stroke="#10658C" stroke-width="3.787" stroke-linecap="round" stroke-linejoin="round" stroke-miterlimit="10" x1="165.3" y1="177.4" x2="160.2" y2="182.5"/>
			
				<line fill="none" stroke="#10658C" stroke-width="3.787" stroke-linecap="round" stroke-linejoin="round" stroke-miterlimit="10" x1="68.9" y1="111.9" x2="109.4" y2="111.3"/>
			
				<line fill="none" stroke="#10658C" stroke-width="3.787" stroke-linecap="round" stroke-linejoin="round" stroke-miterlimit="10" x1="98.3" y1="91.7" x2="39.5" y2="92.6"/>
			
				<line fill="none" stroke="#10658C" stroke-width="3.787" stroke-linecap="round" stroke-linejoin="round" stroke-miterlimit="10" x1="26.3" y1="73" x2="85.5" y2="72.1"/>
			
				<line fill="none" stroke="#10658C" stroke-width="3.787" stroke-linecap="round" stroke-linejoin="round" stroke-miterlimit="10" x1="15.7" y1="53.4" x2="72.2" y2="52.5"/>
			
				<rect x="91.4" y="118.4" transform="matrix(0.7071 -0.7071 0.7071 0.7071 -55.3652 108.6955)" fill="#10658C" width="24.3" height="5.6"/>
		</g>
		<g>
			<polygon fill="#E95F58" points="184.4,102.7 183.5,55.5 203.1,44.9 203.8,89.9 			"/>
			<polygon fill="#E95F58" points="163.9,56.7 144.5,86.1 145.1,119.7 164.6,107.2 			"/>
			
				<polygon fill="none" stroke="#10658C" stroke-width="3.787" stroke-linecap="round" stroke-linejoin="round" stroke-miterlimit="10" points="
				146.2,127.8 128.7,110.2 166.6,52.7 205.3,31.8 224.7,51.1 203.8,89.9 			"/>
			<g>
				<polyline fill="#FFFFFF" points="73.9,177.4 128.7,110.2 146.2,127.8 79,182.5 				"/>
			</g>
			<g>
				<polyline fill="#2FA3D9" points="73.9,177.4 115,127 122.7,147 79,182.5 				"/>
			</g>
			<g>
				
					<polyline fill="none" stroke="#10658C" stroke-width="3.787" stroke-linecap="round" stroke-linejoin="round" stroke-miterlimit="10" points="
					73.9,177.4 128.7,110.2 146.2,127.8 79,182.5 				"/>
			</g>
			
				<path fill="none" stroke="#10658C" stroke-width="3.787" stroke-linecap="round" stroke-linejoin="round" stroke-miterlimit="10" d="
				M74.8,192.4L64,181.7c-1-1-1-2.7,0-3.7l3.4-3.4c1-1,2.7-1,3.7,0l10.8,10.8c1,1,1,2.7,0,3.7l-3.4,3.4
				C77.4,193.4,75.8,193.4,74.8,192.4z"/>
			
				<path fill="none" stroke="#10658C" stroke-width="3.787" stroke-linecap="round" stroke-linejoin="round" stroke-miterlimit="10" d="
				M223.5,49.9l-17-17c-1-1-1-2.7,0-3.7l1.6-1.6c1-1,2.7-1,3.7,0l17,17c1,1,1,2.7,0,3.7l-1.6,1.6C226.2,51,224.5,51,223.5,49.9z"/>
			
				<line fill="none" stroke="#10658C" stroke-width="3.787" stroke-linecap="round" stroke-linejoin="round" stroke-miterlimit="10" x1="79" y1="182.5" x2="73.9" y2="177.4"/>
			
				<line fill="none" stroke="#10658C" stroke-width="3.787" stroke-linecap="round" stroke-linejoin="round" stroke-miterlimit="10" x1="144.5" y1="86.1" x2="145.2" y2="126.7"/>
			
				<line fill="none" stroke="#10658C" stroke-width="3.787" stroke-linecap="round" stroke-linejoin="round" stroke-miterlimit="10" x1="164.8" y1="115.6" x2="163.9" y2="56.7"/>
			
				<line fill="none" stroke="#10658C" stroke-width="3.787" stroke-linecap="round" stroke-linejoin="round" stroke-miterlimit="10" x1="183.5" y1="43.6" x2="184.4" y2="102.7"/>
			
				<line fill="none" stroke="#10658C" stroke-width="3.787" stroke-linecap="round" stroke-linejoin="round" stroke-miterlimit="10" x1="203.1" y1="33" x2="204" y2="89.5"/>
			
				<rect x="123.1" y="118" transform="matrix(0.7071 0.7071 -0.7071 0.7071 125.0123 -60.2735)" fill="#10658C" width="24.3" height="5.6"/>
		</g>
	</g>
	<path fill="#E95F58" d="M118.8,47.4l-11.9,6.3c-1.3,0.7-2.9-0.4-2.6-1.9l2.3-13.2c0.1-0.6-0.1-1.2-0.5-1.6l-9.6-9.4
		c-1.1-1.1-0.5-2.9,1-3.1l13.3-1.9c0.6-0.1,1.1-0.5,1.4-1L118,9.4c0.7-1.4,2.6-1.4,3.3,0l5.9,12.1c0.3,0.5,0.8,0.9,1.4,1l13.3,1.9
		c1.5,0.2,2.1,2,1,3.1l-9.6,9.4c-0.4,0.4-0.6,1-0.5,1.6l2.3,13.2c0.3,1.5-1.3,2.6-2.6,1.9l-11.9-6.3
		C119.9,47.1,119.3,47.1,118.8,47.4z"/>
	<g>
		<g>
			<path fill="#10658C" d="M202.6,150.7l-5,2.7c-1,0.5-1,2,0,2.5l5,2.7c0.2,0.1,0.4,0.3,0.6,0.6l2.7,5c0.5,1,2,1,2.5,0l2.7-5
				c0.1-0.2,0.3-0.4,0.6-0.6l5-2.7c1-0.5,1-2,0-2.5l-5-2.7c-0.2-0.1-0.4-0.3-0.6-0.6l-2.7-5c-0.5-1-2-1-2.5,0l-2.7,5
				C203.1,150.3,202.9,150.5,202.6,150.7z"/>
			<path fill="#10658C" d="M192.9,127.6l-3.1,1.7c-0.6,0.3-0.6,1.2,0,1.5l3.1,1.7c0.1,0.1,0.3,0.2,0.3,0.3l1.7,3.1
				c0.3,0.6,1.2,0.6,1.5,0l1.7-3.1c0.1-0.1,0.2-0.3,0.3-0.3l3.1-1.7c0.6-0.3,0.6-1.2,0-1.5l-3.1-1.7c-0.1-0.1-0.3-0.2-0.3-0.3
				l-1.7-3.1c-0.3-0.6-1.2-0.6-1.5,0l-1.7,3.1C193.2,127.4,193,127.5,192.9,127.6z"/>
			<path fill="#10658C" d="M178.6,142.4l-3.1,1.7c-0.6,0.3-0.6,1.2,0,1.5l3.1,1.7c0.1,0.1,0.3,0.2,0.3,0.3l1.7,3.1
				c0.3,0.6,1.2,0.6,1.5,0l1.7-3.1c0.1-0.1,0.2-0.3,0.3-0.3l3.1-1.7c0.6-0.3,0.6-1.2,0-1.5l-3.1-1.7c-0.1-0.1-0.3-0.2-0.3-0.3
				l-1.7-3.1c-0.3-0.6-1.2-0.6-1.5,0l-1.7,3.1C178.9,142.2,178.7,142.3,178.6,142.4z"/>
		</g>
		<g>
			<path fill="#10658C" d="M36.6,150.7l5,2.7c1,0.5,1,2,0,2.5l-5,2.7c-0.2,0.1-0.4,0.3-0.6,0.6l-2.7,5c-0.5,1-2,1-2.5,0l-2.7-5
				c-0.1-0.2-0.3-0.4-0.6-0.6l-5-2.7c-1-0.5-1-2,0-2.5l5-2.7c0.2-0.1,0.4-0.3,0.6-0.6l2.7-5c0.5-1,2-1,2.5,0l2.7,5
				C36.1,150.3,36.3,150.5,36.6,150.7z"/>
			<path fill="#10658C" d="M46.3,127.6l3.1,1.7c0.6,0.3,0.6,1.2,0,1.5l-3.1,1.7c-0.1,0.1-0.3,0.2-0.3,0.3l-1.7,3.1
				c-0.3,0.6-1.2,0.6-1.5,0l-1.7-3.1c-0.1-0.1-0.2-0.3-0.3-0.3l-3.1-1.7c-0.6-0.3-0.6-1.2,0-1.5l3.1-1.7c0.1-0.1,0.3-0.2,0.3-0.3
				l1.7-3.1c0.3-0.6,1.2-0.6,1.5,0l1.7,3.1C46,127.4,46.2,127.5,46.3,127.6z"/>
			<path fill="#10658C" d="M60.6,142.4l3.1,1.7c0.6,0.3,0.6,1.2,0,1.5l-3.1,1.7c-0.1,0.1-0.3,0.2-0.3,0.3l-1.7,3.1
				c-0.3,0.6-1.2,0.6-1.5,0l-1.7-3.1c-0.1-0.1-0.2-0.3-0.3-0.3l-3.1-1.7c-0.6-0.3-0.6-1.2,0-1.5l3.1-1.7c0.1-0.1,0.3-0.2,0.3-0.3
				l1.7-3.1c0.3-0.6,1.2-0.6,1.5,0l1.7,3.1C60.3,142.2,60.5,142.3,60.6,142.4z"/>
		</g>
	</g>
</g>
</svg>
