<?xml version="1.0" encoding="utf-8"?>
<!-- Generator: Adobe Illustrator 18.0.0, SVG Export Plug-In . SVG Version: 6.00 Build 0)  -->
<!DOCTYPE svg PUBLIC "-//W3C//DTD SVG 1.1//EN" "http://www.w3.org/Graphics/SVG/1.1/DTD/svg11.dtd">
<svg version="1.1" id="Layer_1" xmlns="http://www.w3.org/2000/svg" xmlns:xlink="http://www.w3.org/1999/xlink" x="0px" y="0px"
	 viewBox="0 0 588.1 139.7" enable-background="new 0 0 588.1 139.7" xml:space="preserve">
<g>
	<g>
		
			<path fill="none" stroke="#FFFFFF" stroke-width="2.2595" stroke-linecap="round" stroke-linejoin="round" stroke-miterlimit="10" d="
			M12.8,93.6c31.5-0.6,74.5-8.6,108.6-42"/>
		<g>
			<g>
				<path fill="none" stroke="#10658C" stroke-width="2.2595" stroke-linecap="round" stroke-linejoin="round" d="M12.8,21.6
					c0,0,0.7,0.7,2.1,1.8"/>
				
					<path fill="none" stroke="#10658C" stroke-width="2.2595" stroke-linecap="round" stroke-linejoin="round" stroke-dasharray="5.7047,5.7047" d="
					M19.5,26.9C34.1,37.8,72,61.5,123.4,61"/>
				<path fill="none" stroke="#10658C" stroke-width="2.2595" stroke-linecap="round" stroke-linejoin="round" d="M126.3,60.9
					c0.9,0,1.9-0.1,2.8-0.1"/>
			</g>
		</g>
	</g>
	<g>
		
			<path fill="none" stroke="#FFFFFF" stroke-width="19.206" stroke-linecap="round" stroke-linejoin="round" stroke-miterlimit="10" d="
			M324.5,63.2c0,21.2-17.2,38.4-38.4,38.4s-38.4-17.2-38.4-38.4"/>
		
			<path fill="none" stroke="#10658C" stroke-width="3.3893" stroke-linecap="round" stroke-linejoin="round" stroke-miterlimit="10" d="
			M324.5,63.2c0,21.2-17.2,38.4-38.4,38.4s-38.4-17.2-38.4-38.4"/>
		<g>
			
				<path fill="none" stroke="#10658C" stroke-width="3.3893" stroke-linecap="round" stroke-linejoin="round" stroke-miterlimit="10" d="
				M277.2,47.6c0,3.3-2.7,2.5-5.9,2.5c-3.3,0-5.9,0.7-5.9-2.5s2.7-5.9,5.9-5.9C274.6,41.6,277.2,44.3,277.2,47.6z"/>
			
				<path fill="none" stroke="#10658C" stroke-width="3.3893" stroke-linecap="round" stroke-linejoin="round" stroke-miterlimit="10" d="
				M306.7,47.6c0,3.3-2.7,2.5-5.9,2.5s-5.9,0.7-5.9-2.5s2.7-5.9,5.9-5.9S306.7,44.3,306.7,47.6z"/>
		</g>
		<g>
			<circle fill="#E95F58" cx="288.8" cy="73.2" r="9.7"/>
			
				<circle fill="none" stroke="#10658C" stroke-width="3.3893" stroke-linecap="round" stroke-linejoin="round" stroke-miterlimit="10" cx="286.1" cy="70.5" r="12.5"/>
			
				<path fill="none" stroke="#10658C" stroke-width="3.3893" stroke-linecap="round" stroke-linejoin="round" stroke-miterlimit="10" d="
				M279.4,71.4c0-4.1,3.4-7.5,7.5-7.5"/>
		</g>
		
			<path fill="none" stroke="#10658C" stroke-width="3.3893" stroke-linecap="round" stroke-linejoin="round" stroke-miterlimit="10" d="
			M257.1,45.9c0-16,13-28.9,28.9-28.9c16,0,28.9,13,28.9,28.9"/>
		
			<path fill="none" stroke="#10658C" stroke-width="3.3893" stroke-linecap="round" stroke-linejoin="round" stroke-miterlimit="10" d="
			M276.2,31.4c0,0,10.5-4.3,19.8,0"/>
		
			<path fill="none" stroke="#10658C" stroke-width="3.3893" stroke-linecap="round" stroke-linejoin="round" stroke-miterlimit="10" d="
			M257.1,42.8h-49.8c0,0-0.6-11.4,15.5-11.4c0,0-0.4-14.8,14.8-14.8c0,0,6.6-6.8,13.4,0c0,0,12.6-4.4,14.3,9"/>
		
			<path fill="none" stroke="#10658C" stroke-width="3.3893" stroke-linecap="round" stroke-linejoin="round" stroke-miterlimit="10" d="
			M315,42.8h49.8c0,0,0.6-11.4-15.5-11.4c0,0,0.4-14.8-14.8-14.8c0,0-6.6-6.8-13.4,0c0,0-12.6-4.4-14.3,9"/>
	</g>
	<g>
		
			<circle fill="none" stroke="#10658C" stroke-width="2.2595" stroke-linecap="round" stroke-linejoin="round" stroke-miterlimit="10" cx="175.4" cy="77.9" r="20.2"/>
		
			<circle fill="none" stroke="#E95F58" stroke-width="3.3893" stroke-linecap="round" stroke-linejoin="round" stroke-miterlimit="10" cx="178.4" cy="48.7" r="20.2"/>
		
			<circle fill="none" stroke="#FFFFFF" stroke-width="2.2595" stroke-linecap="round" stroke-linejoin="round" stroke-miterlimit="10" cx="154.8" cy="37.3" r="20.2"/>
	</g>
	<g>
		
			<path fill="none" stroke="#10658C" stroke-width="2.2595" stroke-linecap="round" stroke-linejoin="round" stroke-miterlimit="10" d="
			M385.5,66.7l7.3,4c1.4,0.8,1.4,2.9,0,3.7l-7.3,4c-0.4,0.2-0.6,0.5-0.8,0.8l-4,7.3c-0.8,1.4-2.9,1.4-3.7,0l-4-7.3
			c-0.2-0.4-0.5-0.6-0.8-0.8l-7.3-4c-1.4-0.8-1.4-2.9,0-3.7l7.3-4c0.4-0.2,0.6-0.5,0.8-0.8l4-7.3c0.8-1.4,2.9-1.4,3.7,0l4,7.3
			C384.9,66.2,385.1,66.5,385.5,66.7z"/>
		<path fill="#E95F58" d="M399.6,33.3l4.4,2.4c0.9,0.5,0.9,1.7,0,2.2l-4.4,2.4c-0.2,0.1-0.4,0.3-0.5,0.5l-2.4,4.4
			c-0.5,0.9-1.7,0.9-2.2,0l-2.4-4.4c-0.1-0.2-0.3-0.4-0.5-0.5l-4.4-2.4c-0.9-0.5-0.9-1.7,0-2.2l4.4-2.4c0.2-0.1,0.4-0.3,0.5-0.5
			l2.4-4.4c0.5-0.9,1.7-0.9,2.2,0l2.4,4.4C399.2,33,399.3,33.2,399.6,33.3z"/>
		<path fill="#FFFFFF" d="M420.2,54.7l4.4,2.4c0.9,0.5,0.9,1.7,0,2.2l-4.4,2.4c-0.2,0.1-0.4,0.3-0.5,0.5l-2.4,4.4
			c-0.5,0.9-1.7,0.9-2.2,0l-2.4-4.4c-0.1-0.2-0.3-0.4-0.5-0.5l-4.4-2.4c-0.9-0.5-0.9-1.7,0-2.2l4.4-2.4c0.2-0.1,0.4-0.3,0.5-0.5
			l2.4-4.4c0.5-0.9,1.7-0.9,2.2,0l2.4,4.4C419.9,54.4,420,54.6,420.2,54.7z"/>
	</g>
	<g>
		<g>
			<g>
				<path fill="none" stroke="#FFFFFF" stroke-width="2.2595" stroke-linecap="round" stroke-linejoin="round" d="M431.2,27.2
					c0,0,0.1,1,0.6,2.8"/>
				
					<path fill="none" stroke="#FFFFFF" stroke-width="2.2595" stroke-linecap="round" stroke-linejoin="round" stroke-dasharray="5.4649,5.4649" d="
					M433.2,35.3c5.6,17.8,25.7,59.4,90.7,61.6"/>
				<path fill="none" stroke="#FFFFFF" stroke-width="2.2595" stroke-linecap="round" stroke-linejoin="round" d="M526.7,97
					c0.9,0,1.9,0,2.8,0"/>
			</g>
		</g>
		
			<path fill="none" stroke="#10658C" stroke-width="2.2595" stroke-linecap="round" stroke-linejoin="round" stroke-miterlimit="10" d="
			M406.4,85.4c19.2-4,41.5-12.8,57.4-31.5c0,0,56.5,32.2,111.5-4.7"/>
	</g>
	
		<path fill="none" stroke="#10658C" stroke-width="3.3893" stroke-linecap="round" stroke-linejoin="round" stroke-miterlimit="10" d="
		M237.5,111.6c2,2.9,4,5.8,6.1,8.6c2-1.7,4.1-3.4,6.1-5.2c2.1,2.8,4.1,5.5,6.2,8.1c2.1-1.8,4.1-3.7,6.2-5.7c2.1,2.6,4.2,5.1,6.2,7.6
		c2.1-2,4.2-4.1,6.3-6.2c2.1,2.4,4.2,4.8,6.3,7.1c2.1-2.2,4.2-4.4,6.3-6.7c2.1,2.3,4.2,4.5,6.3,6.7c2.1-2.3,4.2-4.7,6.3-7.1
		c2.1,2.1,4.2,4.2,6.3,6.2c2.1-2.5,4.2-5.1,6.2-7.6c2.1,1.9,4.1,3.8,6.2,5.7c2.1-2.7,4.1-5.4,6.2-8.1c2.1,1.8,4.1,3.5,6.1,5.2
		c2-2.8,4.1-5.7,6.1-8.6"/>
</g>
</svg>
